<svg width="693" height="546" viewBox="0 0 693 546" fill="none" xmlns="http://www.w3.org/2000/svg">
<path d="M47 35.4939C47 33.1795 48.1439 31.0147 50.056 29.7107L71.7851 14.892C72.9475 14.0993 74.322 13.6752 75.729 13.6752H327.017C327.975 13.6752 328.922 13.4787 329.801 13.0979L358.688 0.577341C359.567 0.1965 360.514 0 361.472 0H469.395C470.364 0 471.322 0.201224 472.209 0.590929L497.815 11.8371C500.358 12.954 502 15.4687 502 18.2462V73C502 76.866 498.866 80 495 80H483.734H294.738C292.696 80 290.756 79.1086 289.426 77.5593L276.595 62.6116C275.265 61.0624 273.325 60.1709 271.283 60.1709H75.8935C74.3846 60.1709 72.916 60.6585 71.7067 61.561L58.1868 71.6512C53.57 75.0967 47 71.802 47 66.0413V35.4939Z" fill="#D9D9D9"/>
<path d="M0 67.5829C0 65.3331 1.08138 63.2204 2.90639 61.9047L31.9064 40.9977C36.5363 37.6599 43 40.9683 43 46.676V152.476C43 153.48 43.2161 154.473 43.6337 155.386L58.3663 187.614C58.7839 188.527 59 189.52 59 190.524V436.772C59 438.82 58.1028 440.766 56.5448 442.096L29.5448 465.145C25.0013 469.023 18 465.795 18 459.821V227.132C18 226.058 17.753 224.999 17.2781 224.036L0.721905 190.464C0.247005 189.501 0 188.442 0 187.368V67.5829Z" fill="#D9D9D9"/>
<path d="M61 440H189.5L142 489.5H46.5L26 471L61 440Z" fill="#D9D9D9"/>
<path d="M193 440H428L494 385H693V514.5L673 546H428L362 472H164L193 440Z" fill="#D9D9D9"/>
</svg>
